<?xml version="1.0" encoding="UTF-8" standalone="no"?>
<svg
   xmlns:dc="http://purl.org/dc/elements/1.1/"
   xmlns:cc="http://creativecommons.org/ns#"
   xmlns:rdf="http://www.w3.org/1999/02/22-rdf-syntax-ns#"
   xmlns:svg="http://www.w3.org/2000/svg"
   xmlns="http://www.w3.org/2000/svg"
   viewBox="0 0 2666.6667 2666.6667"
   height="2666.6667"
   width="2666.6667"
   xml:space="preserve"
   id="svg2"
   version="1.1"><metadata
     id="metadata8"><rdf:RDF><cc:Work
         rdf:about=""><dc:format>image/svg+xml</dc:format><dc:type
           rdf:resource="http://purl.org/dc/dcmitype/StillImage" /></cc:Work></rdf:RDF></metadata><defs
     id="defs6"><clipPath
       id="clipPath18"
       clipPathUnits="userSpaceOnUse"><path
         id="path16"
         d="M 0,2000 H 2000 V 0 H 0 Z" /></clipPath></defs><g
     transform="matrix(1.3333333,0,0,-1.3333333,0,2666.6667)"
     id="g10"><g
       id="g12"><g
         clip-path="url(#clipPath18)"
         id="g14"><g
           transform="translate(1775.6807,562.2852)"
           id="g20"><path
             id="path22"
             style="fill:#4e3166;fill-opacity:1;fill-rule:nonzero;stroke:none"
             d="m 0,0 c -54.987,107.842 -406.055,149.377 -406.055,149.377 l -37.87,147.279 -256.679,193.551 231.428,-54.7 -86.261,414.47 -528.078,439.721 -210.156,-276.427 -10.488,19.951 c -0.869,1.659 -2.647,1.919 -3.951,0.575 l -17.939,-18.514 c -1.305,-1.348 -3.875,-2.73 -5.721,-3.077 l -24.924,-4.71 c -1.845,-0.348 -2.622,-1.982 -1.732,-3.624 l 11.956,-22.101 c 0.89,-1.646 1.403,-4.512 1.135,-6.365 l -3.702,-25.798 c -0.266,-1.852 1.01,-3.02 2.837,-2.593 l 26.458,6.183 c 1.822,0.426 4.679,0.075 6.349,-0.775 l 22.018,-11.241 c 1.67,-0.85 3.185,-0.02 3.366,1.842 l 2.343,24.371 c 0.179,1.867 1.458,4.421 2.846,5.682 l 18.651,16.945 c 1.387,1.266 1.132,2.944 -0.563,3.733 l -17.089,7.987 149.916,81.771 218.806,-292.441 -126.234,16.828 -99.177,-569.78 c 3.648,-1.849 7.938,-4.03 12.993,-6.599 8.192,-4.171 18.144,-9.241 29.557,-15.049 11.233,-6.38 24.953,-10.778 39.456,-17.039 7.317,-2.99 14.939,-6.09 22.828,-9.309 7.824,-3.5 16.173,-6.25 24.845,-8.82 17.322,-5.15 35.418,-11.759 54.637,-16.57 19.332,-4.138 39.251,-9.557 59.84,-13.097 10.343,-1.532 20.772,-3.08 31.241,-4.641 10.487,-1.639 21.044,-3.267 31.688,-3.747 21.246,-1.5 42.599,-3.74 63.678,-3.222 10.534,0.012 21.04,-0.309 31.392,-0.019 10.347,0.61 20.571,1.201 30.626,1.79 10.106,0.37 19.974,1.371 29.611,2.659 9.674,1.161 19.137,2.291 28.351,3.391 18.196,3.43 35.746,5.668 51.476,9.698 63.683,13.851 103.673,32.349 103.673,32.349 0,0 -37.699,-22.75 -100.477,-43.747 -15.525,-5.81 -32.926,-9.999 -51.143,-15.509 -9.255,-2.14 -18.762,-4.351 -28.488,-6.6 -9.716,-2.39 -19.713,-4.499 -29.994,-6.018 -10.269,-1.722 -20.714,-3.48 -31.286,-5.261 -10.624,-1.449 -21.441,-2.31 -32.344,-3.509 -21.816,-2.88 -44.117,-3.029 -66.501,-3.85 -11.211,-0.691 -22.382,-0.2 -33.526,0.31 -11.177,0.439 -22.306,0.879 -33.35,1.32 -22.071,1.37 -43.608,4.719 -64.674,6.939 -20.942,2.9 -40.892,7.358 -59.96,11.279 -199.629,40.978 -470.829,-150.647 -350.831,-220.442 163.653,-95.182 337.252,-166.206 730.058,-166.206 C -282.495,-261.399 79.679,-156.268 0,0" /></g></g></g></g></svg>